<?xml version="1.0" encoding="UTF-8"?>
<svg version="1.1" xmlns="http://www.w3.org/2000/svg" width="500" height="500">
<path d="M0 0 C165 0 330 0 500 0 C500 165 500 330 500 500 C335 500 170 500 0 500 C0 335 0 170 0 0 Z " fill="#C554AB" transform="translate(0,0)"/>
<path d="M0 0 C0.78326509 -0.00382555 1.56653017 -0.00765109 2.37353057 -0.01159257 C4.97098911 -0.02182583 7.56822259 -0.017949 10.16569519 -0.01396179 C12.03915611 -0.01831367 13.91261525 -0.0234984 15.78607178 -0.02944946 C20.85645096 -0.04280047 25.92675542 -0.04342241 30.99714875 -0.04088616 C35.23893062 -0.03981367 39.48069753 -0.04470702 43.72247618 -0.04949158 C53.73513616 -0.06057359 63.74775862 -0.06103172 73.76042175 -0.05497742 C84.06859571 -0.04893997 94.37663309 -0.06124588 104.68478376 -0.08254749 C113.553878 -0.10019726 122.4229289 -0.10615947 131.29204005 -0.10290974 C136.58076645 -0.10110191 141.86939545 -0.10368293 147.15810585 -0.11762428 C152.13469804 -0.13025278 157.11107831 -0.12821121 162.08766747 -0.11521339 C163.90643767 -0.11285886 165.72522302 -0.11554168 167.54397583 -0.12383652 C188.15120548 -0.2109895 206.41035979 4.28257989 221.83439636 18.82319641 C230.21288381 27.60193008 236.20115098 37.62713659 239.70939636 49.26069641 C240.04956882 50.13727874 240.38974127 51.01386106 240.74022198 51.91700649 C241.85397317 55.75949211 241.99064325 59.29844196 241.97009277 63.25973511 C241.97391832 64.04789846 241.97774387 64.83606181 241.98168534 65.6481089 C241.99197588 68.28018901 241.98803063 70.91204935 241.98405457 73.54414368 C241.98840341 75.43524375 241.99358714 77.32634205 241.99954224 79.21743774 C242.01292981 84.3500429 242.0135108 89.48257439 242.01097894 94.61519361 C242.00990833 98.90643719 242.01479527 103.19766592 242.01958436 107.48890632 C242.03068028 117.62093686 242.0311175 127.75293032 242.02507019 137.88496399 C242.01903953 148.31631899 242.03131815 158.7475388 242.05264026 169.17887074 C242.07029737 178.14898077 242.07625086 187.11904794 242.07300252 196.08917469 C242.07119491 201.44001656 242.07377287 206.79076216 242.08771706 212.14158821 C242.10035648 217.18052179 242.09829376 222.21924618 242.08530617 227.2581768 C242.08295351 229.09910022 242.0856276 230.94003863 242.09392929 232.78094482 C242.18830923 255.35278331 237.07391464 273.34882242 221.20939636 290.13569641 C208.96763668 301.73019064 192.66343022 308.41222431 175.89585876 308.40786743 C175.12755745 308.41154412 174.35925614 308.41522081 173.56767297 308.41900891 C171.00260252 308.42998927 168.43757267 308.43388005 165.8724823 308.43769836 C164.02890394 308.4439676 162.18532684 308.45061481 160.3417511 308.45761108 C154.29243339 308.47861046 148.24311558 308.48901406 142.19377136 308.49897766 C140.10466245 308.50302766 138.01555366 308.50714465 135.92644501 308.51132774 C126.10307679 308.53037546 116.27971604 308.54460374 106.45633292 308.55293971 C95.15374314 308.56269134 83.85135028 308.58895833 72.54882979 308.62944061 C63.79096119 308.65972077 55.03314862 308.67442007 46.27522874 308.67772073 C41.05552052 308.6800589 35.83602274 308.68885652 30.61637115 308.7141819 C25.6947623 308.73767479 20.77349926 308.74161173 15.8518486 308.73142052 C14.0597785 308.73093005 12.26769014 308.73710324 10.47567368 308.75097656 C-11.32103406 308.91007686 -29.724441 305.04012237 -46.08918762 289.67817688 C-60.11611147 275.75325839 -66.42906603 259.08956154 -66.57583261 239.54372239 C-66.58418785 236.9778318 -66.58278742 234.41204786 -66.58113098 231.84614563 C-66.58712341 229.9888787 -66.59393059 228.13161425 -66.60148621 226.27435303 C-66.61908307 221.25129037 -66.62383898 216.22829595 -66.62511778 211.20520544 C-66.62654379 208.05952218 -66.63082196 204.91385603 -66.63611221 201.76817703 C-66.65459331 190.77250832 -66.66278544 179.77688795 -66.66120911 168.78120422 C-66.66000902 158.56678 -66.68109036 148.35256752 -66.71269643 138.13819683 C-66.73893939 129.34035568 -66.74957301 120.54258334 -66.74829829 111.74470341 C-66.74779091 106.50277507 -66.75334916 101.26103497 -66.77465439 96.01914597 C-66.79417181 91.08270055 -66.79406989 86.14662032 -66.77962112 81.21016121 C-66.7775484 79.4108037 -66.78214084 77.61142251 -66.79434204 75.81210518 C-66.92659394 54.9365213 -62.479684 37.26530871 -48.29060364 21.26069641 C-47.75950989 20.6355011 -47.22841614 20.01030579 -46.68122864 19.36616516 C-35.0899866 6.65596658 -16.98617791 -0.09007966 0 0 Z " fill="#FCFCFC" transform="translate(162.2906036376953,86.73930358886719)"/>
<path d="M0 0 C0.99 0.495 0.99 0.495 2 1 C-7 10 -7 10 -8.85546875 11.48046875 C-10.26152987 12.99245877 -10.26152987 12.99245877 -9.78515625 15.3046875 C-9.52605469 16.19414062 -9.26695312 17.08359375 -9 18 C-4.40670401 35.56400227 -4.72182175 50.94883182 -11 68 C-11.31066406 68.84691406 -11.62132812 69.69382812 -11.94140625 70.56640625 C-12.85342507 72.78715162 -13.87869753 74.87675951 -15 77 C-15.56460938 78.07636719 -16.12921875 79.15273438 -16.7109375 80.26171875 C-21.01398728 88.22879471 -25.91777044 95.25008143 -32 102 C-32.72058594 102.80308594 -33.44117188 103.60617187 -34.18359375 104.43359375 C-39.51214211 110.06608783 -45.32789813 114.09783133 -52 118 C-52.83273437 118.5259375 -53.66546875 119.051875 -54.5234375 119.59375 C-59.54043024 122.4425156 -65.28961947 123.88155504 -71 124.5625 C-74.10917714 124.71073374 -74.10917714 124.71073374 -76 127 C-78.38749392 117.5054214 -78.549668 108.34011421 -78.64526367 98.58935547 C-78.67342619 96.52942185 -78.72129086 94.46966364 -78.78881836 92.41064453 C-79.34611064 75.31580599 -79.34611064 75.31580599 -76.09057617 69.71508789 C-73.84084754 67.44735589 -71.66887468 65.73908216 -69 64 C-67.63254386 62.82782795 -66.27695033 61.64157492 -64.9375 60.4375 C-63.968125 59.633125 -62.99875 58.82875 -62 58 C-58.53100162 59.44225316 -56.8244143 61.15277408 -54.5625 64.125 C-53.87414062 65.01316406 -53.18578125 65.90132813 -52.4765625 66.81640625 C-51.89696777 67.56688232 -51.89696777 67.56688232 -51.30566406 68.33251953 C-48.73399529 71.616831 -46.07696312 74.83264057 -43.4375 78.0625 C-38.88407337 83.65192603 -34.37678371 89.27039223 -30 95 C-29.21625 94.113125 -28.4325 93.22625 -27.625 92.3125 C-27.18414062 91.81363281 -26.74328125 91.31476563 -26.2890625 90.80078125 C-24.75257196 88.65435053 -23.90114955 86.47184479 -23 84 C-23.47308594 83.47792969 -23.94617188 82.95585937 -24.43359375 82.41796875 C-29.81492813 76.4282184 -34.93316269 70.25651702 -40 64 C-41.64435189 61.97796103 -43.29014538 59.9570934 -44.9375 57.9375 C-45.66839844 57.03902344 -46.39929688 56.14054687 -47.15234375 55.21484375 C-48.96205248 52.97793575 -48.96205248 52.97793575 -51 51 C-50.875 49 -50.875 49 -50 47 C-47.9375 45.75 -47.9375 45.75 -46 45 C-46 44.34 -46 43.68 -46 43 C-44.53344727 41.53930664 -44.53344727 41.53930664 -42.50390625 39.84765625 C-38.1839178 36.17315058 -34.05187839 32.33940784 -29.9375 28.4375 C-28.45081146 27.03224455 -26.96382611 25.62730305 -25.4765625 24.22265625 C-24.7330957 23.52027832 -23.98962891 22.81790039 -23.22363281 22.09423828 C-19.16713097 18.27378673 -15.0847554 14.48095553 -10.99780273 10.69311523 C-7.24859981 7.20660544 -3.60117494 3.63942718 0 0 Z " fill="#FAFAFA" transform="translate(315,189)"/>
<path d="M0 0 C14.52 0 29.04 0 44 0 C44 0.66 44 1.32 44 2 C43.42894531 2.11214844 42.85789062 2.22429687 42.26953125 2.33984375 C26.64662808 6.14000939 14.55076511 19.26863751 3.640625 30.390625 C1.18706937 32.79744624 -1.4282586 35.0074228 -4.03125 37.25 C-6.53772851 39.4779809 -8.86599983 41.8544463 -11.21484375 44.24609375 C-13.73015211 46.71737045 -16.39931713 48.99332169 -19.07421875 51.2890625 C-20.92812961 52.93614761 -22.65375701 54.65343792 -24.375 56.4375 C-27 59 -27 59 -29 59 C-29 59.66 -29 60.32 -29 61 C-31 62.625 -31 62.625 -33 64 C-32.41638391 67.66609545 -30.95764866 69.45196561 -28.4375 72.125 C-25.56413821 75.25309244 -22.81709273 78.4141117 -20.1875 81.75 C-15.27798556 87.96283864 -10.13700116 93.97535526 -5 100 C-6.72312209 104.66209202 -9.04444161 108.03332953 -12 112 C-15.65319248 108.43896012 -19.03617023 104.72491949 -22.3125 100.8125 C-22.79106445 100.24370117 -23.26962891 99.67490234 -23.76269531 99.08886719 C-30.36793083 91.21118497 -36.71349006 83.13317223 -43 75 C-49.70999805 77.99407383 -56.20397411 82.60672227 -60 89 C-62.12890044 96.32522308 -61.31503557 104.16388449 -60.9375 111.6875 C-60.8893364 113.72447954 -60.84697545 115.76160493 -60.81054688 117.79882812 C-61.03759543 132.25957031 -61.03759543 132.25957031 -56.3125 145.5 C-53.26367035 147.47761923 -50.58473058 147.72425149 -47 148 C-47 148.66 -47 149.32 -47 150 C-60.2 150 -73.4 150 -87 150 C-87 149.34 -87 148.68 -87 148 C-85.783125 147.835 -84.56625 147.67 -83.3125 147.5 C-79.80864635 146.60326509 -78.23192058 145.6025426 -76.25048828 142.56958008 C-73.33374137 137.53662824 -73.4493644 133.07314074 -73.6796875 127.38671875 C-73.702239 125.31186692 -73.72301308 123.23699516 -73.7421875 121.16210938 C-73.79965709 117.94064644 -73.87384108 114.72186992 -73.98242188 111.50170898 C-74.46370254 95.61085284 -72.34559831 83.61133927 -62 71 C-61.67 71 -61.34 71 -61 71 C-60.505 77.93 -60.505 77.93 -60 85 C-59.03320312 84.09378906 -58.06640625 83.18757813 -57.0703125 82.25390625 C-50.59865125 76.19579099 -44.11110449 70.16446414 -37.50390625 64.25390625 C-32.88476648 60.09595984 -28.32883752 55.86955201 -23.77246094 51.64306641 C-22.56577786 50.52447452 -21.35805403 49.40700453 -20.14941406 48.29052734 C0.58799546 31.64836325 0.58799546 31.64836325 10.95703125 8.8828125 C10.98656267 7.58879935 11 6.29435008 11 5 C7.34920174 3.38935371 3.9492568 2.55105909 0 2 C0 1.34 0 0.68 0 0 Z " fill="#070707" transform="translate(298,173)"/>
<path d="M0 0 C1.051875 0.1546875 1.051875 0.1546875 2.125 0.3125 C2.125 0.9725 2.125 1.6325 2.125 2.3125 C0.515625 3.42578125 0.515625 3.42578125 -1.625 4.625 C-13.84089578 12.04026305 -19.43143904 29.22587669 -25.50634766 41.6484375 C-39.95917569 71.18343444 -56.05042118 98.53865377 -77.875 123.3125 C-76.92625 123.56 -75.9775 123.8075 -75 124.0625 C-71.92635923 124.93449869 -69.01558906 126.0323756 -66.0625 127.25 C-61.09122558 129.28890978 -56.04464446 130.86059985 -50.875 132.3125 C-50.875 133.3025 -50.875 134.2925 -50.875 135.3125 C-56.58435447 134.76337895 -61.1997967 133.16096651 -66.4375 130.875 C-69.24362622 129.67166559 -72.05532111 128.48371347 -74.875 127.3125 C-75.97070312 126.85488281 -77.06640625 126.39726562 -78.1953125 125.92578125 C-80.80506602 125.01791876 -80.80506602 125.01791876 -82.67578125 126.2890625 C-83.17464844 126.83304687 -83.67351562 127.37703125 -84.1875 127.9375 C-89.18961714 132.73073752 -94.63394463 135.46410854 -101.625 135.8125 C-104.63384047 135.63860904 -106.12983502 135.19288356 -108.9375 133.875 C-111.38030927 130.64418774 -111.73001288 128.50673867 -111.47265625 124.5078125 C-110.56651802 121.1793832 -109.062192 119.83248183 -106.125 118.12109375 C-99.0222742 115.56855167 -91.86701812 117.23737676 -84.96875 119.65625 C-82.76358459 120.46204291 -82.76358459 120.46204291 -79.875 120.3125 C-78.19050814 118.39001572 -76.75770644 116.5314423 -75.3125 114.4375 C-74.87631348 113.81399658 -74.44012695 113.19049316 -73.99072266 112.5480957 C-66.53724741 101.65918036 -60.53566852 89.97446947 -55.05419922 77.99560547 C-50.89969378 69.02476023 -46.06183987 60.41674405 -41.25 51.78613281 C-40.07019061 49.66364902 -38.9063076 47.53376726 -37.75 45.3984375 C-13.51295853 1.46879984 -13.51295853 1.46879984 0 0 Z " fill="#0D0D0D" transform="translate(272.875,177.6875)"/>
<path d="M0 0 C0.99 0.33 1.98 0.66 3 1 C4.17551965 3.4856408 5.15112439 5.8561404 6.0625 8.4375 C6.32562988 9.17033203 6.58875977 9.90316406 6.85986328 10.65820312 C14.25157697 31.71366914 11.43486269 52.95746149 2 73 C-8.67850962 92.19428312 -25.06676781 105.93178082 -46.03515625 112.4921875 C-50.37951545 113.61498411 -54.31511936 114.11668531 -58.8125 114.0625 C-60.27623047 114.04896484 -60.27623047 114.04896484 -61.76953125 114.03515625 C-62.50558594 114.02355469 -63.24164063 114.01195312 -64 114 C-64.33 113.34 -64.66 112.68 -65 112 C-63.948125 111.83564453 -63.948125 111.83564453 -62.875 111.66796875 C-56.93728512 110.67566042 -51.47932074 109.51307192 -46 107 C-44.75476563 106.43539062 -44.75476563 106.43539062 -43.484375 105.859375 C-23.47690782 95.9128056 -8.50713784 75.49361521 -1.29199219 54.70751953 C4.16620178 38.2016987 4.41136203 22.86831698 0 6 C-0.66015625 3.1796875 -0.66015625 3.1796875 -1 1 C-0.67 0.67 -0.34 0.34 0 0 Z " fill="#0D0D0D" transform="translate(305,201)"/>
<path d="M0 0 C0.33 0 0.66 0 1 0 C0.99564941 0.8772876 0.99129883 1.7545752 0.98681641 2.65844727 C0.95646925 14.03935304 1.10008474 25.41445269 1.31738281 36.79321289 C1.35602271 38.90187049 1.39080876 41.01060199 1.421875 43.11938477 C1.46772365 46.21392956 1.52556215 49.30805227 1.5859375 52.40234375 C1.59748871 53.33376694 1.60903992 54.26519012 1.62094116 55.22483826 C1.83829328 65.35492798 1.83829328 65.35492798 5.6875 74.5 C8.73632965 76.47761923 11.41526942 76.72425149 15 77 C15 77.66 15 78.32 15 79 C1.8 79 -11.4 79 -25 79 C-25 78.34 -25 77.68 -25 77 C-23.783125 76.835 -22.56625 76.67 -21.3125 76.5 C-17.80864635 75.60326509 -16.23192058 74.6025426 -14.25048828 71.56958008 C-11.33374137 66.53662824 -11.4493644 62.07314074 -11.6796875 56.38671875 C-11.702239 54.31186692 -11.72301308 52.23699516 -11.7421875 50.16210938 C-11.79965709 46.94064644 -11.87384108 43.72186992 -11.98242188 40.50170898 C-12.46370254 24.61085284 -10.34559831 12.61133927 0 0 Z " fill="#030303" transform="translate(236,244)"/>
<path d="M0 0 C1.22936279 0.00088623 2.45872559 0.00177246 3.7253418 0.00268555 C27.04010715 0.30539488 45.6498142 9.5290591 61.93359375 26.03125 C68.3125 32.79826443 68.3125 32.79826443 68.3125 37.375 C67.6525 37.375 66.9925 37.375 66.3125 37.375 C65.13535655 35.7873655 64.02217739 34.15218793 62.9375 32.5 C53.73518303 19.54673862 40.31026424 11.05530091 25.3125 6.375 C23.99572266 5.92447266 23.99572266 5.92447266 22.65234375 5.46484375 C2.01177914 -0.77667719 -22.5318064 3.73121836 -41.66796875 12.78515625 C-44.13137539 14.19113873 -46.3996686 15.69907581 -48.6875 17.375 C-49.59886719 18.03242188 -50.51023438 18.68984375 -51.44921875 19.3671875 C-63.92725587 28.93425006 -73.21582177 42.67968417 -75.6875 58.375 C-75.98667298 61.65191029 -76.06887892 64.89789026 -76.0625 68.1875 C-76.06088867 69.05971191 -76.05927734 69.93192383 -76.05761719 70.83056641 C-75.87425273 80.52910795 -73.49051975 88.57093896 -67.6875 96.375 C-67.3575 97.365 -67.0275 98.355 -66.6875 99.375 C-66.0275 99.375 -65.3675 99.375 -64.6875 99.375 C-64.6875 100.035 -64.6875 100.695 -64.6875 101.375 C-64.006875 101.643125 -63.32625 101.91125 -62.625 102.1875 C-59.6875 103.375 -59.6875 103.375 -56.6875 105 C-49.75003969 107.94728706 -41.31375108 107.28000991 -34.3125 104.875 C-26.04585982 101.0297395 -22.20534575 94.15371126 -18.6328125 86.0859375 C-15.91751929 78.29910489 -15.05929998 68.37765839 -18.1875 60.6875 C-18.6825 59.924375 -19.1775 59.16125 -19.6875 58.375 C-19.6875 57.715 -19.6875 57.055 -19.6875 56.375 C-17.28170094 57.33731962 -15.94950982 57.94842297 -14.57348633 60.1887207 C-13.06895969 63.90132365 -13.35966981 67.60424456 -13.375 71.5625 C-13.35888672 72.37525391 -13.34277344 73.18800781 -13.32617188 74.02539062 C-13.31785419 84.48071582 -17.18385164 94.59191695 -24.45703125 102.234375 C-31.36054799 108.31067296 -37.2212486 110.70114288 -46.55078125 110.5234375 C-56.27578739 109.84784292 -63.12473039 106.29030679 -69.875 99.3125 C-79.48089066 88.02368755 -80.5300221 74.53647301 -79.6875 60.375 C-77.65648231 43.62376237 -68.63886701 28.74935055 -55.75 18.0625 C-48.48763377 12.6018234 -41.22206346 8.38717393 -32.75 5.125 C-32.11819824 4.87862793 -31.48639648 4.63225586 -30.83544922 4.37841797 C-20.77226847 0.68543736 -10.64730689 -0.0138154 0 0 Z " fill="#222222" transform="translate(233.6875,158.625)"/>
<path d="M0 0 C13.2 0 26.4 0 40 0 C40 0.66 40 1.32 40 2 C39.38511719 2.09796875 38.77023438 2.1959375 38.13671875 2.296875 C33.14471769 3.13404801 33.14471769 3.13404801 29 5.8125 C26.88468287 10.43975621 26.91453699 14.90115706 27 19.92578125 C27.18213676 50.64649276 27.18213676 50.64649276 15.36083984 62.66674805 C14.9117627 63.10672119 14.46268555 63.54669434 14 64 C13.98786972 63.04612648 13.98786972 63.04612648 13.97549438 62.07298279 C13.88925119 55.43769777 13.78973921 48.80270471 13.68261719 42.16772461 C13.64440008 39.69349074 13.60953467 37.21920269 13.578125 34.74487305 C13.53231697 31.18258335 13.47434758 27.62066431 13.4140625 24.05859375 C13.40251129 22.95728622 13.39096008 21.8559787 13.37905884 20.72129822 C13.27261781 15.14711708 13.0539976 10.21866538 11 5 C7.60521842 2.92541126 3.9105114 2.54565275 0 2 C0 1.34 0 0.68 0 0 Z " fill="#030303" transform="translate(211,173)"/>
<path d="M0 0 C3.49840535 1.44682409 5.1766906 3.18147948 7.4375 6.1875 C13.02024497 13.36680568 18.91096405 20.24696245 25 27 C25.72316406 27.80695313 26.44632812 28.61390625 27.19140625 29.4453125 C32.36926149 34.61235802 37.85312824 35.41633881 45 36 C45 36.66 45 37.32 45 38 C28.5 38 12 38 -5 38 C-5 37.34 -5 36.68 -5 36 C-2.98177083 35.54427083 -0.96354167 35.08854167 1.0546875 34.6328125 C3.20719964 34.09525572 3.20719964 34.09525572 5 32 C5.55032242 28.13139687 5.29394631 26.44985494 3.13671875 23.1484375 C2.32847656 22.23320312 1.52023437 21.31796875 0.6875 20.375 C-0.11300781 19.45460938 -0.91351563 18.53421875 -1.73828125 17.5859375 C-2.48464844 16.73257812 -3.23101562 15.87921875 -4 15 C-5.82421875 12.8125 -5.82421875 12.8125 -7 11 C-6.04066454 6.44315656 -3.00633705 3.40190771 0 0 Z " fill="#090909" transform="translate(301,285)"/>
<path d="M0 0 C14.52 0 29.04 0 44 0 C44 0.66 44 1.32 44 2 C43.14341797 2.16822266 43.14341797 2.16822266 42.26953125 2.33984375 C30.53310043 5.19465125 21.45434713 13.14984056 12.95751953 21.36914062 C10.45902224 23.77258165 8.22305798 25.67285848 5 27 C5.39027181 23.68268964 6.00508487 21.9930083 8 19.25 C10.81479251 14.67596217 11 10.28295511 11 5 C7.34920174 3.38935371 3.9492568 2.55105909 0 2 C0 1.34 0 0.68 0 0 Z " fill="#090909" transform="translate(298,173)"/>
<path d="M0 0 C0.99 0 1.98 0 3 0 C4.67552161 3.87641216 6.34776828 7.75421599 8.01708984 11.63330078 C8.58456672 12.95073855 9.15291236 14.26780248 9.72216797 15.58447266 C10.54367108 17.48500788 11.36196521 19.386898 12.1796875 21.2890625 C12.91807861 23.00150146 12.91807861 23.00150146 13.67138672 24.74853516 C14.91839583 27.80029321 15.99782256 30.86039848 17 34 C15.68 34 14.36 34 13 34 C12.32880451 32.5437455 11.66318193 31.08492133 11 29.625 C10.62875 28.81289063 10.2575 28.00078125 9.875 27.1640625 C9 25 9 25 9 23 C3.72 23 -1.56 23 -7 23 C-7.33 24.65 -7.66 26.3 -8 28 C-8.95394836 30.02237052 -9.94535351 32.0282696 -11 34 C-11.99 34 -12.98 34 -14 34 C-11.93113841 26.33672448 -9.08957431 19.18650402 -5.875 11.9375 C-5.41996094 10.89400391 -4.96492188 9.85050781 -4.49609375 8.77539062 C-1.14621443 1.14621443 -1.14621443 1.14621443 0 0 Z " fill="#111111" transform="translate(310,330)"/>
<path d="M0 0 C2.40579906 0.96231962 3.73799018 1.57342297 5.11401367 3.8137207 C6.61854031 7.52632365 6.32783019 11.22924456 6.3125 15.1875 C6.32861328 16.00025391 6.34472656 16.81300781 6.36132812 17.65039062 C6.36964581 28.10571582 2.50364836 38.21691695 -4.76953125 45.859375 C-11.67304799 51.93567296 -17.5337486 54.32614288 -26.86328125 54.1484375 C-36.58828739 53.47284292 -43.43723039 49.91530679 -50.1875 42.9375 C-58.91535856 32.38127581 -59.51403648 23.10384843 -58.39453125 9.953125 C-58.26433594 8.64859375 -58.13414062 7.3440625 -58 6 C-57.67 6 -57.34 6 -57 6 C-56.97421875 7.01578125 -56.9484375 8.0315625 -56.921875 9.078125 C-56.50440103 20.45394382 -54.96474958 30.63361263 -48 40 C-47.67 40.99 -47.34 41.98 -47 43 C-46.34 43 -45.68 43 -45 43 C-45 43.66 -45 44.32 -45 45 C-44.319375 45.268125 -43.63875 45.53625 -42.9375 45.8125 C-40 47 -40 47 -37 48.625 C-30.06253969 51.57228706 -21.62625108 50.90500991 -14.625 48.5 C-6.35835982 44.6547395 -2.51784575 37.77871126 1.0546875 29.7109375 C3.76998071 21.92410489 4.62820002 12.00265839 1.5 4.3125 C1.005 3.549375 0.51 2.78625 0 2 C0 1.34 0 0.68 0 0 Z " fill="#292929" transform="translate(214,215)"/>
<path d="M0 0 C3.625 1.5 3.625 1.5 6 3 C5.67 3.99 5.34 4.98 5 6 C4.18402344 5.51273437 4.18402344 5.51273437 3.3515625 5.015625 C0.53962719 3.80116789 -1.5710622 3.73353672 -4.625 3.75 C-5.58664063 3.74484375 -6.54828125 3.7396875 -7.5390625 3.734375 C-10.17697348 3.75887912 -10.17697348 3.75887912 -12 6 C-12.16681109 9.08347826 -12.16681109 9.08347826 -12 12 C-11.45472656 12.17015625 -10.90945312 12.3403125 -10.34765625 12.515625 C4.95576505 17.43364757 4.95576505 17.43364757 8 22 C8.50326079 25.85833276 8.31669325 27.50857943 6.1875 30.8125 C2.8229951 34.1770049 -0.17345284 34.20215178 -4.75 34.3125 C-10.40230729 34.29192121 -13.4642269 33.29874408 -18 30 C-17.505 28.515 -17.505 28.515 -17 27 C-12.25 28.875 -12.25 28.875 -10 30 C-7.7927077 30.07092842 -5.58332548 30.08415025 -3.375 30.0625 C-1.59222656 30.04896484 -1.59222656 30.04896484 0.2265625 30.03515625 C1.59941406 30.01775391 1.59941406 30.01775391 3 30 C3 27.36 3 24.72 3 22 C1.46279297 21.54560547 1.46279297 21.54560547 -0.10546875 21.08203125 C-1.46640028 20.65967319 -2.82706353 20.23644997 -4.1875 19.8125 C-4.86103516 19.61591797 -5.53457031 19.41933594 -6.22851562 19.21679688 C-10.92882903 17.7264536 -13.79931927 15.92007183 -17 12 C-17.625 9 -17.625 9 -17 6 C-11.78695682 -0.17334061 -7.77292976 -0.71311282 0 0 Z " fill="#181818" transform="translate(258,330)"/>
<path d="M0 0 C0.99 0 1.98 0 3 0 C3.01458252 0.59949463 3.02916504 1.19898926 3.04418945 1.81665039 C3.11923821 4.56587455 3.21570752 7.31395889 3.3125 10.0625 C3.33505859 11.00544922 3.35761719 11.94839844 3.38085938 12.91992188 C3.60019734 18.64264889 4.18669437 22.96812557 7 28 C10.66908557 30.44605705 13.73618769 30.83946402 18 30 C20.69105198 27.82425584 22.45532928 26.08934144 24 23 C24.15266612 21.26131256 24.24932596 19.51752499 24.31640625 17.7734375 C24.35830078 16.7421875 24.40019531 15.7109375 24.44335938 14.6484375 C24.48267578 13.56820313 24.52199219 12.48796875 24.5625 11.375 C24.60568359 10.28703125 24.64886719 9.1990625 24.69335938 8.078125 C24.7996453 5.3855483 24.90168057 2.69287747 25 0 C26.32 0 27.64 0 29 0 C29.117791 3.31219232 29.18777155 6.62383492 29.25 9.9375 C29.30027344 11.32678711 29.30027344 11.32678711 29.3515625 12.74414062 C29.44311788 19.2674615 28.44321476 24.38661639 25 30 C21.51308637 33.40389188 18.74332947 34.26497016 14 34.5 C9.30393216 34.28814732 6.52094303 33.26331306 3 30 C-0.98197363 24.26293847 -0.34123113 18.31821703 -0.1875 11.625 C-0.17396484 10.50738281 -0.16042969 9.38976562 -0.14648438 8.23828125 C-0.11127164 5.49168789 -0.06202096 2.74609711 0 0 Z " fill="#161616" transform="translate(142,330)"/>
<path d="M0 0 C0.99 0 1.98 0 3 0 C3.33 5.94 3.66 11.88 4 18 C6.0625 15.958125 8.125 13.91625 10.25 11.8125 C10.89227539 11.17932861 11.53455078 10.54615723 12.19628906 9.89379883 C15.35994913 6.74539598 18.29113838 3.5604097 21 0 C22.32 0.33 23.64 0.66 25 1 C21.04 5.29 17.08 9.58 13 14 C14.83001854 18.57504634 16.37065755 20.90990711 19.5 24.5625 C22.09504152 27.59987815 24.40638632 30.31909884 26 34 C22.29042558 33.77716337 21.18084617 33.20127398 18.6484375 30.3828125 C17.89820313 29.30773437 17.14796875 28.23265625 16.375 27.125 C13.01639949 22.2805033 13.01639949 22.2805033 9 18 C5.75779627 20.41086944 4.25085708 21.74218142 3.4453125 25.78125 C3.21191921 28.52538928 3.05303957 31.24676404 3 34 C2.01 34 1.02 34 0 34 C0 22.78 0 11.56 0 0 Z " fill="#0A0A0A" transform="translate(363,330)"/>
<path d="M0 0 C2.76050753 1.44001733 4.55262598 2.56770861 5.76953125 5.48828125 C5.79015625 6.06578125 5.81078125 6.64328125 5.83203125 7.23828125 C3.27189218 6.76418142 1.74879318 6.18047703 -0.41796875 4.67578125 C-4.08641841 2.75818256 -7.10513909 2.48986526 -11.16796875 3.23828125 C-14.74444525 5.41526694 -16.59096823 7.40644666 -18.16796875 11.23828125 C-18.88440315 16.28664456 -18.71498421 20.18197554 -16.35546875 24.73828125 C-14.1672452 27.23910817 -12.50087618 28.99288163 -9.15234375 29.609375 C-2.85490976 29.7965365 0.04819549 28.30963084 4.83203125 24.23828125 C5.49203125 24.89828125 6.15203125 25.55828125 6.83203125 26.23828125 C3.71534751 30.46806633 1.55735672 32.76007973 -3.68359375 33.6796875 C-9.11244583 33.92010809 -12.48053658 33.62476443 -16.73046875 30.05078125 C-21.00778442 25.96910164 -22.46138268 21.7824562 -22.60546875 15.92578125 C-22.49721134 10.19587144 -20.94131903 6.5147449 -17.16796875 2.23828125 C-12.55073747 -1.98318735 -5.73979359 -2.01668424 0 0 Z " fill="#111111" transform="translate(351.16796875,330.76171875)"/>
<path d="M0 0 C2.1106598 0.70243829 4.16756406 1.4517696 6.21484375 2.3203125 C1.84755319 7.23351438 -2.73953051 10.78009541 -9.41796875 11.671875 C-16.02932334 11.88390095 -16.02932334 11.88390095 -18.58203125 9.98046875 C-19.78515625 8.3203125 -19.78515625 8.3203125 -19.72265625 5.3203125 C-17.06829888 -3.17363108 -7.14869874 -1.74456323 0 0 Z " fill="#F4F4F4" transform="translate(183.78515625,298.6796875)"/>
<path d="M0 0 C6.89439633 5.41702569 13.88818462 11.85086689 19 19 C19 20.32 19 21.64 19 23 C18.34 23 17.68 23 17 23 C15.82285655 21.4123655 14.70967739 19.77718793 13.625 18.125 C1.79004838 1.46601918 -16.41783401 -7.16016125 -36 -11 C-40.41665039 -11.44570208 -44.81334516 -11.59583358 -49.25 -11.6875 C-50.95736328 -11.73874023 -50.95736328 -11.73874023 -52.69921875 -11.79101562 C-55.46604702 -11.87239293 -58.2326023 -11.94189107 -61 -12 C-61 -12.33 -61 -12.66 -61 -13 C-39.27641647 -17.32362585 -18.32728151 -12.06975701 0 0 Z " fill="#262626" transform="translate(283,173)"/>
<path d="M0 0 C7.26 0 14.52 0 22 0 C22 0.99 22 1.98 22 3 C15.73 3 9.46 3 3 3 C3 6.96 3 10.92 3 15 C8.28 15 13.56 15 19 15 C19 15.99 19 16.98 19 18 C13.72 18 8.44 18 3 18 C3 23.28 3 28.56 3 34 C2.01 34 1.02 34 0 34 C0 22.78 0 11.56 0 0 Z " fill="#0B0B0B" transform="translate(115,330)"/>
<path d="M0 0 C8.91 0 17.82 0 27 0 C27 0.99 27 1.98 27 3 C23.04 3 19.08 3 15 3 C15 13.23 15 23.46 15 34 C14.01 34 13.02 34 12 34 C12 23.77 12 13.54 12 3 C8.04 3 4.08 3 0 3 C0 2.01 0 1.02 0 0 Z " fill="#040404" transform="translate(268,330)"/>
<path d="M0 0 C0.99 0 1.98 0 3 0 C3 10.23 3 20.46 3 31 C9.6 31 16.2 31 23 31 C23 31.99 23 32.98 23 34 C15.41 34 7.82 34 0 34 C0 22.78 0 11.56 0 0 Z " fill="#090909" transform="translate(205,330)"/>
<path d="M0 0 C0.99 0 1.98 0 3 0 C3 10.23 3 20.46 3 31 C9.6 31 16.2 31 23 31 C23 31.99 23 32.98 23 34 C15.41 34 7.82 34 0 34 C0 22.78 0 11.56 0 0 Z " fill="#090909" transform="translate(178,330)"/>
<path d="M0 0 C2.40579906 0.96231962 3.73799018 1.57342297 5.11401367 3.8137207 C6.61854031 7.52632365 6.32783019 11.22924456 6.3125 15.1875 C6.32861328 16.00025391 6.34472656 16.81300781 6.36132812 17.65039062 C6.36968347 28.15305834 2.46892692 38.26401295 -4.83984375 45.9296875 C-7.5576234 48.33144626 -9.52565963 49.84188654 -13 51 C-12.62303116 48.45955784 -12.30710863 47.27485856 -10.36328125 45.53515625 C-9.34814453 44.80619141 -9.34814453 44.80619141 -8.3125 44.0625 C-1.50359288 38.40473905 1.97400222 29.670245 3 21 C3.67497986 11.04853618 3.67497986 11.04853618 0 2 C0 1.34 0 0.68 0 0 Z " fill="#242424" transform="translate(214,215)"/>
<path d="M0 0 C0.66 0.33 1.32 0.66 2 1 C2.495 9.415 2.495 9.415 3 18 C2.34 18.33 1.68 18.66 1 19 C0.505 12.565 0.505 12.565 0 6 C-10.35296733 19.67726066 -11.41608772 31.24591065 -11.125 48.0625 C-11.12305325 50.29752671 -11.12562753 52.53256212 -11.1328125 54.76757812 C-11.14054867 60.17959207 -11.09292018 65.58882562 -11 71 C-11.33 71 -11.66 71 -12 71 C-12.33 56.48 -12.66 41.96 -13 27 C-13.99 27.66 -14.98 28.32 -16 29 C-14.42495361 24.58650102 -12.13258706 20.7220743 -9.6875 16.75 C-6.33067933 11.23266882 -3.06630865 5.6857683 0 0 Z " fill="#BFBFBF" transform="translate(236,240)"/>
<path d="M0 0 C1.97885999 2.96828999 3.25864997 5.77447054 4.625 9.0625 C5.07101562 10.12597656 5.51703125 11.18945312 5.9765625 12.28515625 C7 15 7 15 7 17 C2.71 17 -1.58 17 -6 17 C-5.19980115 12.19880692 -4.45116558 9.35886096 -2.4375 5.125 C-1.75494141 3.67480469 -1.75494141 3.67480469 -1.05859375 2.1953125 C-0.70925781 1.47085937 -0.35992187 0.74640625 0 0 Z " fill="#EBEBEB" transform="translate(311,334)"/>
<path d="M0 0 C0.66 0.99 1.32 1.98 2 3 C0.47559406 4.42277888 -1.04881584 5.84555353 -2.57324219 7.26831055 C-3.91119762 8.51710179 -5.24908712 9.76596368 -6.58691406 11.01489258 C-10.1332372 14.32537445 -13.68064048 17.63468292 -17.23046875 20.94140625 C-18.24161743 21.8837915 -18.24161743 21.8837915 -19.27319336 22.84521484 C-20.56917567 24.0530057 -21.86554865 25.26037752 -23.16235352 26.46728516 C-23.75330811 27.01819824 -24.3442627 27.56911133 -24.953125 28.13671875 C-25.47036133 28.61842529 -25.98759766 29.10013184 -26.52050781 29.59643555 C-27.5682997 30.59045462 -28.58050825 31.62260687 -29.56542969 32.67895508 C-31 34 -31 34 -33 34 C-33 34.66 -33 35.32 -33 36 C-34.95927063 37.7143618 -36.95880212 39.38405168 -39 41 C-39.495 39.515 -39.495 39.515 -40 38 C-37.77129239 35.9161738 -35.54208303 33.83288927 -33.3125 31.75 C-32.63276123 31.11465332 -31.95302246 30.47930664 -31.25268555 29.82470703 C-28.02410477 26.81006156 -24.79121962 23.80101899 -21.53125 20.8203125 C-14.15219376 14.07147233 -7.013944 7.12768363 0 0 Z " fill="#272727" transform="translate(302,198)"/>
<path d="M0 0 C3.0625 0.3125 3.0625 0.3125 5 1.375 C6.7115104 4.49598955 5.85541991 6.95783884 5.0625 10.3125 C4.4025 10.9725 3.7425 11.6325 3.0625 12.3125 C-0.5 12.0625 -0.5 12.0625 -3.9375 11.3125 C-5.44412097 8.29925805 -5.11520373 5.62963623 -4.9375 2.3125 C-2.9375 0.3125 -2.9375 0.3125 0 0 Z " fill="#B1B1B1" transform="translate(261.9375,377.6875)"/>
<path d="M0 0 C6.3782235 -0.36103152 6.3782235 -0.36103152 8.9375 1.125 C10.50422245 3.88980433 10.38976435 5.88188517 10 9 C8.9375 10.875 8.9375 10.875 7 12 C3.3125 12.1875 3.3125 12.1875 0 12 C0 8.04 0 4.08 0 0 Z " fill="#A9A9A9" transform="translate(198,378)"/>
<path d="M0 0 C0.66 0.33 1.32 0.66 2 1 C1.34911877 5.45446841 0.274144 9.62321094 -1 13.9375 C-3.17307309 21.61588527 -3.7740527 29.03535766 -4 37 C-4.66 37 -5.32 37 -6 37 C-6.42169449 23.95870751 -5.84415904 11.96661136 0 0 Z " fill="#2A2A2A" transform="translate(160,199)"/>
<path d="M0 0 C-0.99 1.485 -0.99 1.485 -2 3 C-4.0234375 3.37109375 -4.0234375 3.37109375 -6.375 3.4375 C-9.62200774 3.70459257 -10.83937124 3.89291416 -13.625 5.75 C-15.26472092 7.94471425 -15.26472092 7.94471425 -14.8125 10.6875 C-14.21073101 12.93351267 -14.21073101 12.93351267 -13 14 C-11.65252916 14.23075082 -10.29622435 14.41153063 -8.9375 14.5625 C-7.638125 14.706875 -6.33875 14.85125 -5 15 C-4.67 15.99 -4.34 16.98 -4 18 C-8.46641443 18.35030701 -11.94914438 18.49325876 -16.0625 16.5625 C-18.50530927 13.33168774 -18.85501288 11.19423867 -18.59765625 7.1953125 C-17.69531999 3.88084858 -16.18830101 2.53880431 -13.2890625 0.796875 C-8.94493812 -0.71541403 -4.52810165 -0.3684712 0 0 Z " fill="#373737" transform="translate(180,295)"/>
<path d="M0 0 C-0.33 0.99 -0.66 1.98 -1 3 C-1.87140625 3.09796875 -2.7428125 3.1959375 -3.640625 3.296875 C-11.03443324 4.22510201 -17.69689371 5.65403866 -24.671875 8.29296875 C-27 9 -27 9 -29 8 C-29.33 7.34 -29.66 6.68 -30 6 C-20.09402413 2.05293805 -10.707597 -0.40406026 0 0 Z " fill="#343434" transform="translate(228,159)"/>
<path d="M0 0 C0.33 0 0.66 0 1 0 C1.29473094 4.35439954 1.54492207 8.7085968 1.75683594 13.06762695 C1.83461034 14.54517996 1.92382881 16.0221823 2.02539062 17.49829102 C2.70672803 27.54461098 1.86113252 34.46624837 -4 43 C-4.97417572 44.7202912 -5.93487943 46.44836416 -6.875 48.1875 C-7.5828878 49.45858156 -8.29103897 50.72951673 -9 52 C-9.66 51.34 -10.32 50.68 -11 50 C-9.52380364 47.18593119 -8.04354757 44.37401822 -6.5625 41.5625 C-6.14162109 40.76005859 -5.72074219 39.95761719 -5.28710938 39.13085938 C-4.88427734 38.36708984 -4.48144531 37.60332031 -4.06640625 36.81640625 C-3.69459229 36.10943604 -3.32277832 35.40246582 -2.93969727 34.67407227 C-2 33 -2 33 -1 32 C-0.84028023 29.62661361 -0.7407567 27.27881728 -0.68359375 24.90234375 C-0.66281265 24.19348526 -0.64203156 23.48462677 -0.62062073 22.75428772 C-0.55505402 20.48212695 -0.4962077 18.20984736 -0.4375 15.9375 C-0.39432151 14.40037817 -0.35070745 12.8632685 -0.30664062 11.32617188 C-0.19936551 7.5509041 -0.09811863 3.7755164 0 0 Z " fill="#C7C7C7" transform="translate(237,186)"/>
<path d="M0 0 C3.375 -0.125 3.375 -0.125 7 0 C7.66 0.66 8.32 1.32 9 2 C8.70241581 4.3381615 8.36760731 6.67182036 8 9 C8.33 9.99 8.66 10.98 9 12 C8.34 12 7.68 12 7 12 C6.34 11.01 5.68 10.02 5 9 C2.94074861 8.27617533 2.94074861 8.27617533 1 8 C0.67 9.32 0.34 10.64 0 12 C0 8.04 0 4.08 0 0 Z " fill="#3C3C3C" transform="translate(294,378)"/>
<path d="M0 0 C3.45560251 0.59937884 6.46493569 1.50074943 9.6875 2.875 C14.70130533 4.94083859 19.78278236 6.53473888 25 8 C25 8.99 25 9.98 25 11 C19.24653958 10.43533678 14.44529134 8.8448457 9.125 6.625 C8.35414063 6.32078125 7.58328125 6.0165625 6.7890625 5.703125 C4.8199305 4.89189809 2.90401664 3.95409149 1 3 C0.67 2.01 0.34 1.02 0 0 Z " fill="#333333" transform="translate(197,302)"/>
<path d="M0 0 C0.66 0 1.32 0 2 0 C3.734375 2.08984375 3.734375 2.08984375 5.75 4.9375 C6.45640625 5.93265625 7.1628125 6.9278125 7.890625 7.953125 C10.64697143 11.93451428 13.35567023 15.94335774 16 20 C12.34212876 19.76775421 11.19608963 19.21559939 8.68359375 16.453125 C7.94238281 15.39609375 7.20117188 14.3390625 6.4375 13.25 C5.69371094 12.20328125 4.94992187 11.1565625 4.18359375 10.078125 C3.46300781 9.06234375 2.74242187 8.0465625 2 7 C0.67913711 5.32343304 -0.64993419 3.65314181 -2 2 C-1.34 1.34 -0.68 0.68 0 0 Z " fill="#131313" transform="translate(373,344)"/>
<path d="M0 0 C3.375 -0.125 3.375 -0.125 7 0 C7.66 0.66 8.32 1.32 9 2 C8.625 4.625 8.625 4.625 8 7 C5.69 7.33 3.38 7.66 1 8 C0.67 9.32 0.34 10.64 0 12 C0 8.04 0 4.08 0 0 Z " fill="#3B3B3B" transform="translate(271,378)"/>
<path d="M0 0 C0 0.66 0 1.32 0 2 C-1.609375 3.11328125 -1.609375 3.11328125 -3.75 4.3125 C-7.31633629 6.44222026 -9.58800354 8.5675435 -12 12 C-12.66 12.66 -13.32 13.32 -14 14 C-14.66 14 -15.32 14 -16 14 C-17.36161311 14.96113866 -18.69855198 15.95884159 -20 17 C-18.44552062 13.3979537 -16.252552 10.83129897 -13.625 7.9375 C-12.85414063 7.08027344 -12.08328125 6.22304687 -11.2890625 5.33984375 C-7.54519597 1.51292216 -5.48896208 -0.45741351 0 0 Z " fill="#292929" transform="translate(275,178)"/>
<path d="M0 0 C0.33 0.99 0.66 1.98 1 3 C0.01 3.99 -0.98 4.98 -2 6 C8.23 6 18.46 6 29 6 C29 6.66 29 7.32 29 8 C15.8 8 2.6 8 -11 8 C-11 7.34 -11 6.68 -11 6 C-9.741875 5.7525 -8.48375 5.505 -7.1875 5.25 C-4.16442273 4.51162006 -3.1940517 4.20617994 -1 1.875 C-0.67 1.25625 -0.34 0.6375 0 0 Z " fill="#242424" transform="translate(222,315)"/>
<path d="M0 0 C0.33 0 0.66 0 1 0 C1.02578125 1.01578125 1.0515625 2.0315625 1.078125 3.078125 C1.38071375 11.19264548 2.23691353 18.09618804 5.2578125 25.7421875 C6 28 6 28 5 30 C4.34 30 3.68 30 3 30 C-2.72495774 20.66315906 -0.96339042 10.40643424 0 0 Z " fill="#444444" transform="translate(156,221)"/>
<path d="M0 0 C0.8765625 -0.01224609 1.753125 -0.02449219 2.65625 -0.03710938 C7.51423435 -0.04808374 11.4398186 0.28992452 16 2.1875 C16 2.5175 16 2.8475 16 3.1875 C5.44 2.8575 -5.12 2.5275 -16 2.1875 C-16 1.8575 -16 1.5275 -16 1.1875 C-10.64320487 0.08618521 -5.44305359 0.00400225 0 0 Z " fill="#0A0A0A" transform="translate(238,158.8125)"/>
<path d="M0 0 C0.66 0.33 1.32 0.66 2 1 C0.72867494 4.81397517 -0.986462 5.83673229 -4.125 8.3125 C-5.11371094 9.10140625 -6.10242188 9.8903125 -7.12109375 10.703125 C-8.54615234 11.84007812 -8.54615234 11.84007812 -10 13 C-12.35281869 14.97878085 -14.67672418 16.98649429 -17 19 C-17.33 17.68 -17.66 16.36 -18 15 C-17.46632812 14.7834375 -16.93265625 14.566875 -16.3828125 14.34375 C-13.13430401 12.51180423 -10.572802 10.04026612 -7.875 7.5 C-7.06869141 6.75169922 -7.06869141 6.75169922 -6.24609375 5.98828125 C-4.13236554 4.02214504 -2.04136111 2.04136111 0 0 Z " fill="#2D2D2D" transform="translate(254,243)"/>
<path d="M0 0 C0.33 0 0.66 0 1 0 C1 13.53 1 27.06 1 41 C1.66 41 2.32 41 3 41 C2.01 43.475 2.01 43.475 1 46 C0.67 46 0.34 46 0 46 C0 30.82 0 15.64 0 0 Z " fill="#181818" transform="translate(225,191)"/>
<path d="M0 0 C6.13053511 -0.32712342 10.62669111 -0.39366878 16 3 C15.67 3.99 15.34 4.98 15 6 C14.46890625 5.68289063 13.9378125 5.36578125 13.390625 5.0390625 C10.45464152 3.7629651 7.93825671 3.58292979 4.75 3.375 C3.67234375 3.30023438 2.5946875 3.22546875 1.484375 3.1484375 C0.66453125 3.09945313 -0.1553125 3.05046875 -1 3 C-0.67 2.01 -0.34 1.02 0 0 Z " fill="#111111" transform="translate(248,330)"/>
<path d="M0 0 C9.86206897 7.96551724 9.86206897 7.96551724 13 13 C13 14.32 13 15.64 13 17 C12.34 17 11.68 17 11 17 C9.64240067 15.32210126 8.36288195 13.58056912 7.125 11.8125 C4.51885776 8.11138164 1.86099884 4.5088932 -1 1 C-0.67 0.67 -0.34 0.34 0 0 Z " fill="#1E1E1E" transform="translate(289,179)"/>
<path d="M0 0 C3.71368887 1.23789629 4.77354181 2.85224877 7 6 C7 6.66 7 7.32 7 8 C7.66 8 8.32 8 9 8 C9 8.66 9 9.32 9 10 C11.475 10.99 11.475 10.99 14 12 C14 12.66 14 13.32 14 14 C9.03452097 13.84953094 6.79416372 11.16908414 3.55078125 7.7890625 C1.20430806 5.08204809 0 3.65954056 0 0 Z " fill="#232323" transform="translate(160,250)"/>
<path d="M0 0 C2.28085043 0.91234017 3.70988267 1.58094164 5.125 3.625 C6.33160835 6.9000798 6.18941155 9.77177622 6.125 13.25 C6.10695312 14.51328125 6.08890625 15.7765625 6.0703125 17.078125 C6.04710937 18.04234375 6.02390625 19.0065625 6 20 C5.34 20.33 4.68 20.66 4 21 C3.96261719 20.13117188 3.92523438 19.26234375 3.88671875 18.3671875 C3.41611089 9.73779216 3.41611089 9.73779216 0 2 C0 1.34 0 0.68 0 0 Z " fill="#161616" transform="translate(214,215)"/>
<path d="M0 0 C0.66 0.33 1.32 0.66 2 1 C0.61411212 5.15766364 -1.54961862 5.97465398 -5.30078125 7.9921875 C-9.8280265 9.68253377 -14.24419317 9.40002114 -19 9 C-19 8.67 -19 8.34 -19 8 C-18.1646875 7.85304688 -18.1646875 7.85304688 -17.3125 7.703125 C-10.93228181 6.45294711 -4.7008969 4.7008969 0 0 Z " fill="#171717" transform="translate(187,303)"/>
<path d="M0 0 C8.35740901 -0.32098157 15.22270481 -0.21819111 23 3 C22.01 3.495 22.01 3.495 21 4 C20.67 4.66 20.34 5.32 20 6 C19.2265625 5.72285156 18.453125 5.44570313 17.65625 5.16015625 C11.72118003 3.09610345 6.27033868 1.48233374 0 1 C0 0.67 0 0.34 0 0 Z " fill="#181818" transform="translate(170,296)"/>
<path d="M0 0 C2.64 0 5.28 0 8 0 C8 0.33 8 0.66 8 1 C6.02 1 4.04 1 2 1 C2 2.32 2 3.64 2 5 C3.98 5 5.96 5 8 5 C8 5.33 8 5.66 8 6 C6.02 6 4.04 6 2 6 C2 7.65 2 9.3 2 11 C4.31 11 6.62 11 9 11 C9 11.33 9 11.66 9 12 C6.03 12 3.06 12 0 12 C0 8.04 0 4.08 0 0 Z " fill="#454545" transform="translate(282,378)"/>
<path d="M0 0 C0.33 0 0.66 0 1 0 C0.67 6.93 0.34 13.86 0 21 C-0.66 21 -1.32 21 -2 21 C-2.05404449 18.24973583 -2.09369306 15.50053797 -2.125 12.75 C-2.14175781 11.97269531 -2.15851563 11.19539062 -2.17578125 10.39453125 C-2.23662606 3.27568856 -2.23662606 3.27568856 0 0 Z " fill="#101010" transform="translate(156,215)"/>
<path d="M0 0 C-1.93269959 1.17460192 -3.87133313 2.33944472 -5.8125 3.5 C-6.89144531 4.1496875 -7.97039062 4.799375 -9.08203125 5.46875 C-12 7 -12 7 -15 7 C-14 4 -14 4 -11.85546875 2.578125 C-10.97503906 2.13984375 -10.09460938 1.7015625 -9.1875 1.25 C-8.31480469 0.80140625 -7.44210938 0.3528125 -6.54296875 -0.109375 C-3.80064256 -1.06982104 -2.6686569 -1.02018585 0 0 Z " fill="#202020" transform="translate(200,167)"/>
<path d="M0 0 C0.66 0.33 1.32 0.66 2 1 C2.33 6.61 2.66 12.22 3 18 C2.34 18.33 1.68 18.66 1 19 C0.67 14.71 0.34 10.42 0 6 C-0.99 6.99 -1.98 7.98 -3 9 C-2.44271087 5.65626525 -1.64826111 2.96687001 0 0 Z " fill="#D7D7D7" transform="translate(236,240)"/>
<path d="M0 0 C1.12377697 3.30435084 0.89554742 5.0506862 -0.4375 8.25 C-0.72496094 8.95640625 -1.01242187 9.6628125 -1.30859375 10.390625 C-1.53675781 10.92171875 -1.76492188 11.4528125 -2 12 C-2.99 11.67 -3.98 11.34 -5 11 C-4.39102647 7.44765442 -3.54266151 4.2668126 -2 1 C-1.34 0.67 -0.68 0.34 0 0 Z " fill="#1D1D1D" transform="translate(307,339)"/>
<path d="M0 0 C1.98 0 3.96 0 6 0 C6 1.65 6 3.3 6 5 C4.02 5 2.04 5 0 5 C0 3.35 0 1.7 0 0 Z " fill="#F0F0F0" transform="translate(295,379)"/>
<path d="M0 0 C1.98 0 3.96 0 6 0 C6 1.65 6 3.3 6 5 C4.02 5 2.04 5 0 5 C0 3.35 0 1.7 0 0 Z " fill="#F0F0F0" transform="translate(272,379)"/>
<path d="M0 0 C0.99 0.33 1.98 0.66 3 1 C0.19195732 3.96404505 -2.18315774 6.44499019 -6 8 C-5.66354211 4.85972637 -4.94763914 3.94901705 -2.625 1.6875 C-1.75875 1.130625 -0.8925 0.57375 0 0 Z " fill="#282828" transform="translate(183,173)"/>
<path d="M0 0 C0.99 0.66 1.98 1.32 3 2 C-0.625 6.875 -0.625 6.875 -4 8 C-4.33 7.34 -4.66 6.68 -5 6 C-3.35 4.02 -1.7 2.04 0 0 Z " fill="#1C1C1C" transform="translate(355,355)"/>
<path d="M0 0 C0.66 0.33 1.32 0.66 2 1 C1.09522263 2.46573934 0.17565859 3.92235756 -0.75 5.375 C-1.26046875 6.18710937 -1.7709375 6.99921875 -2.296875 7.8359375 C-4.0673335 10.08555679 -5.36907419 10.95906848 -8 12 C-5.58047417 7.79766566 -2.84444647 3.92072351 0 0 Z " fill="#CECECE" transform="translate(293,274)"/>
<path d="M0 0 C-0.11509661 1.41750563 -0.24253658 2.83401169 -0.375 4.25 C-0.44460937 5.03890625 -0.51421875 5.8278125 -0.5859375 6.640625 C-1.01507113 9.085877 -1.78600638 10.84836903 -3 13 C-3.92311745 8.69211856 -4.09771253 5.29105809 -3 1 C-1 0 -1 0 0 0 Z " fill="#2A2A2A" transform="translate(220,235)"/>
<path d="M0 0 C1 3 1 3 -0.21484375 5.69921875 C-0.78332031 6.68535156 -1.35179687 7.67148438 -1.9375 8.6875 C-2.50339844 9.68136719 -3.06929687 10.67523438 -3.65234375 11.69921875 C-4.31943359 12.83810547 -4.31943359 12.83810547 -5 14 C-5.66 13.34 -6.32 12.68 -7 12 C-6.02296079 10.1863523 -5.04330895 8.37411183 -4.0625 6.5625 C-3.51722656 5.55316406 -2.97195312 4.54382813 -2.41015625 3.50390625 C-1 1 -1 1 0 0 Z " fill="#D0D0D0" transform="translate(233,224)"/>
<path d="M0 0 C0.33 1.32 0.66 2.64 1 4 C-1.68841859 6.25245881 -3.64641875 7.88213958 -7 9 C-6.82374165 6.62051228 -6.30280227 5.29774151 -4.59765625 3.62109375 C-3.09350908 2.37884514 -1.54870149 1.18623944 0 0 Z " fill="#262626" transform="translate(208,257)"/>
<path d="M0 0 C-0.33 0.99 -0.66 1.98 -1 3 C-2.84765625 3.73046875 -2.84765625 3.73046875 -5.0625 4.1875 C-5.79597656 4.34605469 -6.52945313 4.50460938 -7.28515625 4.66796875 C-8.13400391 4.83232422 -8.13400391 4.83232422 -9 5 C-9.33 4.01 -9.66 3.02 -10 2 C-6.38026598 0.68373308 -3.90432869 0 0 0 Z " fill="#2C2C2C" transform="translate(208,163)"/>
<path d="M0 0 C4.95 0.99 4.95 0.99 10 2 C10.33 2.99 10.66 3.98 11 5 C9.54176788 5.0270043 8.08339325 5.04639787 6.625 5.0625 C5.81289062 5.07410156 5.00078125 5.08570313 4.1640625 5.09765625 C2 5 2 5 0 4 C0 2.68 0 1.36 0 0 Z " fill="#383838" transform="translate(165,308)"/>
<path d="M0 0 C1.134375 0.4125 2.26875 0.825 3.4375 1.25 C3.7675 2.24 4.0975 3.23 4.4375 4.25 C0.21837253 3.7705537 -2.35913178 3.08374881 -5.5625 0.25 C-3.5625 -0.75 -3.5625 -0.75 0 0 Z " fill="#363636" transform="translate(177.5625,263.75)"/>
<path d="M0 0 C3.82097239 0.53069061 6.06171403 1.49701566 9 4 C7.3125 4.6875 7.3125 4.6875 5 5 C2.25 3.6875 2.25 3.6875 0 2 C0 1.34 0 0.68 0 0 Z " fill="#252525" transform="translate(197,302)"/>
<path d="M0 0 C0.33 0.99 0.66 1.98 1 3 C-1.31 4.98 -3.62 6.96 -6 9 C-6 6 -6 6 -3.5625 3.375 C-2.716875 2.59125 -1.87125 1.8075 -1 1 C-0.67 0.67 -0.34 0.34 0 0 Z " fill="#181818" transform="translate(176,179)"/>
<path d="M0 0 C0.66 0.99 1.32 1.98 2 3 C0.25 5.0625 0.25 5.0625 -2 7 C-3.32 6.67 -4.64 6.34 -6 6 C-4.02 4.02 -2.04 2.04 0 0 Z " fill="#3D3D3D" transform="translate(302,198)"/>
<path d="M0 0 C0 3.52032428 -0.70351351 4.4385343 -3 7 C-3.66 7 -4.32 7 -5 7 C-6.36161311 7.96113866 -7.69855198 8.95884159 -9 10 C-7.61811547 6.78956118 -6.07578097 4.95063635 -3.375 2.75 C-2.74335938 2.22921875 -2.11171875 1.7084375 -1.4609375 1.171875 C-0.73777344 0.59179688 -0.73777344 0.59179688 0 0 Z " fill="#1B1B1B" transform="translate(264,185)"/>
<path d="M0 0 C0.99 0.66 1.98 1.32 3 2 C0 5 -3 8 -6 11 C-6 7.39426104 -5.18292538 6.58663434 -3 3.8125 C-2.443125 3.09707031 -1.88625 2.38164062 -1.3125 1.64453125 C-0.879375 1.10183594 -0.44625 0.55914062 0 0 Z " fill="#D5D5D5" transform="translate(300,283)"/>
<path d="M0 0 C2.18975773 3.28463659 2.99806563 6.20696275 4 10 C3.01 10 2.02 10 1 10 C-1.42857143 3.71428571 -1.42857143 3.71428571 0 0 Z " fill="#333333" transform="translate(158,241)"/>
<path d="M0 0 C0.99 0.33 1.98 0.66 3 1 C1.02 3.97 1.02 3.97 -1 7 C-1.99 6.34 -2.98 5.68 -4 5 C-2.68 3.35 -1.36 1.7 0 0 Z " fill="#2C2C2C" transform="translate(168,187)"/>
<path d="M0 0 C0.33 0 0.66 0 1 0 C1.33 3.3 1.66 6.6 2 10 C1.01 9.34 0.02 8.68 -1 8 C-1.25 4.4375 -1.25 4.4375 -1 1 C-0.67 0.67 -0.34 0.34 0 0 Z " fill="#111111" transform="translate(163,301)"/>
<path d="M0 0 C3.37462715 0.54723683 5.08235 1.0549 8 3 C8 3.66 8 4.32 8 5 C4.75791433 4.64950425 3.38472296 4.43778819 1.1875 1.9375 C0.795625 1.298125 0.40375 0.65875 0 0 Z " fill="#1D1D1D" transform="translate(166,259)"/>
<path d="M0 0 C0.66 0 1.32 0 2 0 C1.75 2.375 1.75 2.375 1 5 C-1.0625 6.3125 -1.0625 6.3125 -3 7 C-2.01 4.69 -1.02 2.38 0 0 Z " fill="#191919" transform="translate(211,253)"/>
<path d="M0 0 C0.99 0.33 1.98 0.66 3 1 C1.35 2.98 -0.3 4.96 -2 7 C-2.66 6.01 -3.32 5.02 -4 4 C-2.68 2.68 -1.36 1.36 0 0 Z " fill="#363636" transform="translate(266,232)"/>
<path d="M0 0 C1.98 1.65 3.96 3.3 6 5 C5.34 5.66 4.68 6.32 4 7 C2.35 5.02 0.7 3.04 -1 1 C-0.67 0.67 -0.34 0.34 0 0 Z " fill="#0F0F0F" transform="translate(289,179)"/>
<path d="M0 0 C-2.3125 1.5625 -2.3125 1.5625 -5 3 C-5.99 2.67 -6.98 2.34 -8 2 C-6.14210462 -1.71579076 -3.44525918 -1.06921837 0 0 Z " fill="#161616" transform="translate(200,167)"/>
</svg>
